<svg xmlns="http://www.w3.org/2000/svg" viewBox="0 0 24 24" width="48" height="48">
  <path fill="#FF9900" d="M18.77 15.65c-2.31 1.7-5.54 2.6-8.43 2.6-4.04 0-7.69-1.51-10.45-4.04-.22-.2-.04-.5.22-.34 2.96 1.72 6.57 2.76 10.23 2.76 2.56 0 5.44-.66 7.74-2.04.34-.2.69.17.69.69v.37zm1.37-.87c-.29-.38-1.93-.18-2.67-.09-.23.03-.26-.16-.06-.31 1.34-.94 3.54-.67 3.79-.37.26.3-.06 2.5-1.33 3.53-.19.16-.38.07-.3-.15.26-.7.86-2.23.57-2.61z"/>
  <path fill="#232F3E" d="M9.7 10.74c0-.77.16-1.36.48-1.78.32-.42.78-.63 1.37-.63.53 0 .95.18 1.25.54.3.36.45.88.45 1.57v3.08h1.83V9.89c0-.98-.28-1.76-.84-2.34-.56-.58-1.35-.87-2.37-.87-1.12 0-2.02.39-2.7 1.17l-.14-.99H7.3v8.66h1.83v-4.78h.57z"/>
</svg>